<?xml version="1.0" encoding="UTF-8"?>
<svg version="1.1" xmlns="http://www.w3.org/2000/svg" width="41" height="41">
<path d="M0 0 C0.71353638 0.00202423 1.42707275 0.00404846 2.16223145 0.00613403 C2.89091431 0.00517731 3.61959717 0.00422058 4.37036133 0.00323486 C5.91377855 0.00255318 7.45719861 0.00440666 9.00061035 0.00857544 C11.37095544 0.01392391 13.74111104 0.00863011 16.1114502 0.00222778 C17.60754437 0.00288857 19.10363842 0.00416973 20.59973145 0.00613403 C21.31326782 0.0041098 22.0268042 0.00208557 22.76196289 0 C27.76602953 0.02399462 27.76602953 0.02399462 28.88098145 1.13894653 C29.16492122 3.65384169 29.32909384 6.16884235 29.5020752 8.69363403 C29.74423084 11.38963431 29.74423084 11.38963431 31.88098145 14.13894653 C31.96003209 16.47094041 31.96896914 18.80727275 31.88098145 21.13894653 C30.89098145 21.13894653 29.90098145 21.13894653 28.88098145 21.13894653 C28.93318848 22.8192395 28.93318848 22.8192395 28.9864502 24.53347778 C29.01458984 26.00611904 29.04188981 27.47877651 29.06848145 28.95144653 C29.09361816 29.68943481 29.11875488 30.4274231 29.14465332 31.18777466 C29.21951306 36.70244195 29.21951306 36.70244195 27.3692627 39.08816528 C26.87812988 39.4349231 26.38699707 39.78168091 25.88098145 40.13894653 C25.88098145 40.46894653 25.88098145 40.79894653 25.88098145 41.13894653 C22.58098145 41.13894653 19.28098145 41.13894653 15.88098145 41.13894653 C15.88098145 40.14894653 15.88098145 39.15894653 15.88098145 38.13894653 C12.91098145 38.13894653 9.94098145 38.13894653 6.88098145 38.13894653 C6.88098145 39.12894653 6.88098145 40.11894653 6.88098145 41.13894653 C3.58098145 41.13894653 0.28098145 41.13894653 -3.11901855 41.13894653 C-3.61401855 39.65394653 -3.61401855 39.65394653 -4.11901855 38.13894653 C-4.77901855 37.47894653 -5.43901855 36.81894653 -6.11901855 36.13894653 C-6.2639984 33.55830525 -6.30579401 31.08950769 -6.24401855 28.51394653 C-6.23499512 27.80754028 -6.22597168 27.10113403 -6.2166748 26.37332153 C-6.19309459 24.62838555 -6.15722316 22.88362358 -6.11901855 21.13894653 C-7.10901855 21.13894653 -8.09901855 21.13894653 -9.11901855 21.13894653 C-9.24401855 14.51394653 -9.24401855 14.51394653 -8.11901855 11.13894653 C-7.45901855 11.13894653 -6.79901855 11.13894653 -6.11901855 11.13894653 C-6.13062012 10.4286731 -6.14222168 9.71839966 -6.1541748 8.98660278 C-6.16770996 7.60795044 -6.16770996 7.60795044 -6.18151855 6.20144653 C-6.19312012 5.2849231 -6.20472168 4.36839966 -6.2166748 3.42410278 C-6.03276552 -0.87937448 -3.74908346 0.01797695 0 0 Z M-0.11901855 4.13894653 C0.54098145 5.45894653 1.20098145 6.77894653 1.88098145 8.13894653 C8.81098145 8.13894653 15.74098145 8.13894653 22.88098145 8.13894653 C22.22098145 6.81894653 21.56098145 5.49894653 20.88098145 4.13894653 C13.95098145 4.13894653 7.02098145 4.13894653 -0.11901855 4.13894653 Z M-2.11901855 12.13894653 C-2.11901855 15.43894653 -2.11901855 18.73894653 -2.11901855 22.13894653 C0.54276365 23.46983764 2.56837541 23.25163646 5.54504395 23.23660278 C7.22727051 23.2317688 7.22727051 23.2317688 8.94348145 23.22683716 C10.70691895 23.2142688 10.70691895 23.2142688 12.50598145 23.20144653 C13.68934082 23.19693481 14.8727002 23.1924231 16.09191895 23.18777466 C19.02162784 23.17596132 21.95131086 23.15802543 24.88098145 23.13894653 C24.88098145 19.50894653 24.88098145 15.87894653 24.88098145 12.13894653 C22.34651271 10.87171217 20.55871191 11.00953326 17.72473145 11.00613403 C16.1913916 11.00420044 16.1913916 11.00420044 14.6270752 11.00222778 C13.02025879 11.00802856 13.02025879 11.00802856 11.38098145 11.01394653 C10.30977051 11.01007935 9.23855957 11.00621216 8.1348877 11.00222778 C6.60154785 11.00416138 6.60154785 11.00416138 5.03723145 11.00613403 C4.09686035 11.00726196 3.15648926 11.00838989 2.18762207 11.009552 C-0.14671728 10.98762252 -0.14671728 10.98762252 -2.11901855 12.13894653 Z M-0.11901855 28.13894653 C0.21098145 29.12894653 0.54098145 30.11894653 0.88098145 31.13894653 C1.54098145 31.13894653 2.20098145 31.13894653 2.88098145 31.13894653 C2.88098145 30.47894653 2.88098145 29.81894653 2.88098145 29.13894653 C1.89098145 28.80894653 0.90098145 28.47894653 -0.11901855 28.13894653 Z M19.88098145 29.13894653 C19.55098145 30.12894653 19.22098145 31.11894653 18.88098145 32.13894653 C19.87098145 31.80894653 20.86098145 31.47894653 21.88098145 31.13894653 C21.88098145 30.47894653 21.88098145 29.81894653 21.88098145 29.13894653 C21.22098145 29.13894653 20.56098145 29.13894653 19.88098145 29.13894653 Z " fill="#E06400" transform="translate(9.1190185546875,-0.138946533203125)"/>
<path d="" fill="#000000" transform="translate(0,0)"/>
<path d="" fill="#000000" transform="translate(0,0)"/>
</svg>
